ISO-10303-21;
HEADER;
FILE_DESCRIPTION(('rect complement probe'),'2;1');
FILE_NAME('rc','2026-10-02T00:00:00',('hand'),('hand'),'hand','hand','');
FILE_SCHEMA(('AUTOMOTIVE_DESIGN { 1 0 10303 214 1 1 1 1 }'));
ENDSEC;
DATA;
#1 = APPLICATION_PROTOCOL_DEFINITION('international standard','automotive_design',2000,#2);
#2 = APPLICATION_CONTEXT('core data for automotive mechanical design processes');
#3 = SHAPE_DEFINITION_REPRESENTATION(#4,#10);
#4 = PRODUCT_DEFINITION_SHAPE('','',#5);
#5 = PRODUCT_DEFINITION('design','',#6,#9);
#6 = PRODUCT_DEFINITION_FORMATION('','',#7);
#7 = PRODUCT('rc','rc','',(#8));
#8 = PRODUCT_CONTEXT('',#2,'mechanical');
#9 = PRODUCT_DEFINITION_CONTEXT('part definition',#2,'design');
#10 = ADVANCED_BREP_SHAPE_REPRESENTATION('',(#14,#153),#74);
#11 = CARTESIAN_POINT('',(0.,0.,0.));
#12 = DIRECTION('',(0.,0.,1.));
#13 = DIRECTION('',(1.,0.,0.));
#14 = AXIS2_PLACEMENT_3D('',#11,#12,#13);
#101 = CARTESIAN_POINT('',(9.84807753012208,0.0,1.7364817766693033));
#102 = VERTEX_POINT('',#101);
#103 = CARTESIAN_POINT('',(5.320938997893174,8.286871497736342,1.7364817766693033));
#104 = VERTEX_POINT('',#103);
#105 = CARTESIAN_POINT('',(4.138955790146588,6.446041719579431,6.4278760968653925));
#106 = VERTEX_POINT('',#105);
#107 = CARTESIAN_POINT('',(7.66044443118978,0.0,6.4278760968653925));
#108 = VERTEX_POINT('',#107);
#109 = CARTESIAN_POINT('',(0.0,0.0,1.7364817766693033));
#110 = DIRECTION('',(0.0,0.0,1.0));
#111 = DIRECTION('',(1.0,0.0,0.0));
#112 = AXIS2_PLACEMENT_3D('',#109,#110,#111);
#113 = CIRCLE('',#112,9.84807753012208);
#114 = CARTESIAN_POINT('',(0.0,0.0,6.4278760968653925));
#115 = DIRECTION('',(0.0,0.0,1.0));
#116 = DIRECTION('',(1.0,0.0,0.0));
#117 = AXIS2_PLACEMENT_3D('',#114,#115,#116);
#118 = CIRCLE('',#117,7.66044443118978);
#119 = CARTESIAN_POINT('',(0.0,0.0,0.0));
#120 = DIRECTION('',(0.8414709848078965,-0.5403023058681398,0.0));
#121 = DIRECTION('',(0.5403023058681398,0.8414709848078965,0.0));
#122 = AXIS2_PLACEMENT_3D('',#119,#120,#121);
#123 = CIRCLE('',#122,10.0);
#124 = CARTESIAN_POINT('',(0.0,0.0,0.0));
#125 = DIRECTION('',(0.0,-1.0,0.0));
#126 = DIRECTION('',(1.0,0.0,0.0));
#127 = AXIS2_PLACEMENT_3D('',#124,#125,#126);
#128 = CIRCLE('',#127,10.0);
#129 = EDGE_CURVE('',#102,#104,#113,.T.);
#130 = EDGE_CURVE('',#104,#106,#123,.T.);
#131 = EDGE_CURVE('',#108,#106,#118,.T.);
#132 = EDGE_CURVE('',#102,#108,#128,.T.);
#133 = CARTESIAN_POINT('',(0.0,0.0,0.0));
#134 = DIRECTION('',(0.0,0.0,1.0));
#135 = DIRECTION('',(1.0,0.0,0.0));
#136 = AXIS2_PLACEMENT_3D('',#133,#134,#135);
#137 = SPHERICAL_SURFACE('',#136,10.0);
#138 = ORIENTED_EDGE('',*,*,#129,.T.);
#139 = ORIENTED_EDGE('',*,*,#130,.T.);
#140 = ORIENTED_EDGE('',*,*,#131,.F.);
#141 = ORIENTED_EDGE('',*,*,#132,.F.);
#142 = EDGE_LOOP('',(#138,#139,#140,#141));
#143 = FACE_OUTER_BOUND('',#142,.T.);
#144 = ADVANCED_FACE('',(#143),#137,.T.);
#145 = ORIENTED_EDGE('',*,*,#132,.T.);
#146 = ORIENTED_EDGE('',*,*,#131,.T.);
#147 = ORIENTED_EDGE('',*,*,#130,.F.);
#148 = ORIENTED_EDGE('',*,*,#129,.F.);
#149 = EDGE_LOOP('',(#145,#146,#147,#148));
#150 = FACE_OUTER_BOUND('',#149,.T.);
#151 = ADVANCED_FACE('',(#150),#137,.T.);
#152 = CLOSED_SHELL('',(#144,#151));
#153 = MANIFOLD_SOLID_BREP('',#152);
#70 = ( LENGTH_UNIT() NAMED_UNIT(*) SI_UNIT(.MILLI.,.METRE.) );
#71 = ( NAMED_UNIT(*) PLANE_ANGLE_UNIT() SI_UNIT($,.RADIAN.) );
#72 = ( NAMED_UNIT(*) SI_UNIT($,.STERADIAN.) SOLID_ANGLE_UNIT() );
#73 = UNCERTAINTY_MEASURE_WITH_UNIT(LENGTH_MEASURE(1.E-07),#70,'distance_accuracy_value','confusion accuracy');
#74 = ( GEOMETRIC_REPRESENTATION_CONTEXT(3) GLOBAL_UNCERTAINTY_ASSIGNED_CONTEXT((#73)) GLOBAL_UNIT_ASSIGNED_CONTEXT((#70,#71,#72)) REPRESENTATION_CONTEXT('Context #1','3D Context with UNIT and REPRESENTATION') );
ENDSEC;
END-ISO-10303-21;
